PathFileType	4	(X/Y/Z)	Patient4_TMGait_0pt4_03_right_01.trc.trc
DataRate	CameraRate	NumFrames	NumMarkers	Units	OrigDataRate	OrigDataStartFrame	OrigNumFrames
76.923076923077	76.923076923077	4	33	mm	76.923076923077	53	       141
Frame#	Time	Sacral			L.Shoulder			Chest			R.Shoulder			Neck			R.ASIS			L.ASIS			R.Thigh.Superior			R.Thigh.Lateral			R.Thigh.Inferior			R.Patella			L.Thigh.Superior			L.Thigh.Lateral			L.Thigh.Inferior			L.Patella			L.Shank.Superior			L.Shank.Lateral			L.Shank.Inferior			R.Shank.Superior			R.Shank.Lateral			R.Shank.Inferior			R.Heel			R.Midfoot.Superior			R.Midfoot.Lateral			R.Toe			L.Heel			L.Midfoot.Lateral			L.Midfoot.Superior			L.Toe			L.Elbow			L.Wrist			R.Elbow			R.Wrist			
		X1	Y1	Z1	X2	Y2	Z2	X3	Y3	Z3	X4	Y4	Z4	X5	Y5	Z5	X6	Y6	Z6	X7	Y7	Z7	X8	Y8	Z8	X9	Y9	Z9	X10	Y10	Z10	X11	Y11	Z11	X12	Y12	Z12	X13	Y13	Z13	X14	Y14	Z14	X15	Y15	Z15	X16	Y16	Z16	X17	Y17	Z17	X18	Y18	Z18	X19	Y19	Z19	X20	Y20	Z20	X21	Y21	Z21	X22	Y22	Z22	X23	Y23	Z23	X24	Y24	Z24	X25	Y25	Z25	X26	Y26	Z26	X27	Y27	Z27	X28	Y28	Z28	X29	Y29	Z29	X30	Y30	Z30	X31	Y31	Z31	X32	Y32	Z32	X33	Y33	Z33	

53	0.876000000000	825.547658085050	1004.392040505273	549.601320283193	968.273823624068	1438.385900907584	352.905012524422	1095.825756451932	1371.902883313489	496.492948537516	1037.569268553689	1441.159714899747	682.337722465124	971.397290822016	1498.156332576721	511.142378122437	1067.697717429179	944.507014230069	635.618353863608	1018.561557552541	970.079698007162	366.199137979191	1096.979840159081	740.118350758836	601.746080657230	1016.766323170142	632.093024209201	668.815809339132	1084.715542628773	578.493064861727	582.838689896700	1081.345119240856	490.233771324910	588.715370358651	1109.908648457231	790.707271453156	379.039863032265	1061.107289050661	662.254376455979	302.597786692486	1174.439568135461	606.876350462869	348.196312444114	1195.623510688174	526.267686493716	337.715854428685	1149.928177079057	451.485777908113	331.837672081938	1027.612540466007	364.818351908103	294.159181285991	1069.555397886574	236.952208989900	338.414664204501	1050.172484525084	402.236667169928	596.049661233601	978.126429974515	300.417676930379	659.828862751810	1011.458361633274	204.936891873304	592.724270814015	871.098265328566	43.558839597501	566.660752960570	1042.991750160864	96.629359233439	597.788342953144	956.356596015837	37.251078076867	639.084185957966	1164.549665949843	41.901025895456	621.222897866483	923.702664221550	104.151805936049	390.413798553981	981.893010390655	88.997863079284	299.970504420455	1078.408656462059	134.695816288879	311.956617609461	1186.647734233447	63.148414794649	263.030236970831	911.049587654862	1090.833211377918	235.157328138736	989.651965007453	841.646386709860	202.123554235850	1087.899696155071	1102.515626994262	816.048073569423	1311.294480176380	993.770925683587	750.382226512268	
54	0.889000000000	824.565843368315	1005.088340166372	550.889390436248	967.089933426675	1438.416395816150	353.357488550277	1095.575301962771	1371.740196352055	496.012538237918	1038.958142864498	1441.377904476100	682.234979961620	971.407761201601	1498.291191269589	511.374706554822	1066.955798781525	944.343968406088	635.567257447740	1016.682989243310	970.438097806798	366.370092966323	1094.141873200646	739.593858190313	601.314454029572	1013.472183436187	632.126020809046	669.124159432738	1080.271009808515	578.036258479539	582.821167688899	1076.249603817049	490.080134394216	588.878131129752	1107.541589463370	791.248404358295	379.246280609037	1059.424386884962	663.074666059078	302.148637843245	1172.161411592975	607.718207465092	349.100000043808	1194.711967616169	529.050006576238	338.009398270772	1152.667129793180	453.987704559697	331.024294673533	1036.155207499344	360.588373474564	291.735385191042	1085.785045335488	234.729467512702	334.938859370959	1045.157595541152	402.111822212523	596.244658759751	973.080643183446	300.301114955239	659.982150678084	1006.284842707169	204.852065631354	592.821632838376	865.838703295663	43.536997538328	566.673159477243	1037.723027568449	96.562129523713	597.774168506112	951.100115265611	37.231321109805	639.095514172303	1159.284087381630	41.863788852668	621.268603306412	948.424318421751	92.438345750488	385.154904411770	1007.779726942488	81.811946271120	294.796731864457	1101.331746358267	133.172504317565	307.484131457962	1213.955455371079	68.820513880122	258.390493373695	905.072873889418	1091.595270513275	236.272390283565	975.609751466717	840.124376195858	203.269595948265	1094.350968561085	1103.391459373848	814.797518292102	1320.706044373129	1005.175155884571	744.272574375120	
55	0.902000000000	823.533983984605	1005.681993847213	551.895998806629	966.042041720884	1438.365685143591	353.612785211101	1095.323395361313	1371.453581744434	495.429885815387	1040.190211346372	1441.428197279745	681.991049793715	971.411630684974	1498.325503816481	511.429955980047	1066.104234820364	944.117295699216	635.422707027401	1014.909307306885	970.607739894250	366.402229286276	1091.329665025994	739.040334648306	600.892746267936	1010.214829105613	632.111099171666	669.377396792778	1075.891876030638	577.567945010703	582.765561065683	1071.241125099201	489.915816028108	588.998960338824	1104.965056092976	791.274715259866	379.597688940917	1057.549529979547	663.586861589685	301.589285908077	1169.416457834663	607.994335728638	350.269104262394	1193.286149350432	531.378050266677	338.614167780486	1154.870121497203	456.268148898654	330.486872904750	1044.638132578913	356.579735115694	289.083222176360	1101.434354687869	233.159594440064	331.670170296454	1040.200038558900	401.957100405892	596.391227215081	968.090853080049	300.164332118378	660.117986872522	1001.133037400351	204.746804917697	592.894331018040	860.571948840449	43.507566978435	566.679452755955	1032.451338346876	96.483122986267	597.741135520428	945.842809632897	37.204813110622	639.104670382500	1154.018430053632	41.825246009664	621.305366380702	972.648547765042	82.191154146829	379.484800676675	1033.407634012959	75.861062529443	289.624813503755	1123.684125531705	132.546250674988	303.454308431740	1240.397320498426	75.255426262381	255.032127688215	899.110589765930	1092.378868384898	237.209422692115	962.091650468228	838.962809938673	204.809683242065	1100.776597913379	1104.119285972974	813.169174564988	1329.598296652950	1016.607453176314	737.977024905726	
56	0.915000000000	822.466431275577	1006.177538165824	552.614504565493	965.127998879713	1438.251459354748	353.659920118974	1095.061559463233	1371.065971097719	494.744170981041	1041.244026289742	1441.339088413274	681.599715490484	971.401958860429	1498.277869375490	511.306418124798	1065.155981668633	943.844186157130	635.191952163559	1013.250382239974	970.614423507541	366.289867538723	1088.579400469903	738.466588075584	600.510882061233	1006.999439773960	632.053281559472	669.565315840627	1071.614668200056	577.091212011737	582.679674281085	1066.352226506105	489.737683369143	589.072403843850	1102.240082395549	790.871445264836	380.071258675704	1055.542901121683	663.851015762390	300.914555776423	1166.350268200128	607.817184215195	351.552579261738	1191.468918584217	533.298014474651	339.432573768714	1156.593226674050	458.346598585949	330.187806732321	1052.923551328060	352.936723933563	286.296762170458	1116.227745378033	232.286838544303	328.716943533159	1035.319014628912	401.777084085105	596.484385581424	963.166469485195	300.019828337229	660.239621290911	996.013959119356	204.627176619420	592.945846442945	855.301822674360	43.473843726258	566.683628793146	1027.181397798293	96.396018819869	597.694502965398	940.586260120194	37.173071285665	639.114765839849	1148.754940919904	41.786011163528	621.335546879042	995.869324079279	73.594360840470	373.669733900793	1058.247121685936	71.228766410393	284.687625641157	1145.038863730707	132.811084191620	300.010925215482	1265.499479778638	82.289546693150	253.062478371858	893.181246950359	1093.189123238675	238.001352147587	949.139630611274	838.122045084453	206.721669496257	1107.143767260563	1104.735667919741	811.163360263577	1337.929066656103	1028.016791228848	731.548457855364	
